<svg xmlns="http://www.w3.org/2000/svg" viewBox="0 0 121.2 93.12"><defs><style>.cls-1{fill:none;stroke:#fff;stroke-miterlimit:10;}</style></defs><title>Asset 1</title><g id="Layer_2" data-name="Layer 2"><g id="Layer_1-2" data-name="Layer 1"><path class="cls-1" d="M42.75,43.13l.69.14a7,7,0,0,1,1.46.45,11.65,11.65,0,0,1,1.7.87s5.92,4,2.23,6.84-5.93-2.34-6.57-4.26.16-3.72.69-5a6.23,6.23,0,0,1,1.92-2.26c6.72,1.2,13.19,11.16,4.84,15.14-8,3.82-14.62-9.39-10-15.35,4.79-6.2,14.1-2,16.72,4.39,3.06,7.52-2.71,16.07-10.67,15.2-14.35-1.57-15.34-24.64-.21-26,10.1-.89,17,10.12,14.62,19.24C57,64.59,41.71,66.4,34.6,56.61c-12.19-16.78,9.16-36.49,24.31-21.8C75.56,51,52.35,77.88,34.19,61.51,16.88,45.9,34.9,17.06,56.07,28.17c17.57,9.21,15.16,38.94-5.52,42-19.36,2.9-33.81-20.42-23.91-36.79,11.5-19,39.59-11.69,44.23,8.89C75.31,62,57.07,80.36,37.37,72.46c-17.92-7.19-23.85-33.31-9.61-46.87C44,10.18,69.37,21.63,74.2,41.42,79.38,62.67,60.67,82.9,39,76.61,20.1,71.15,10.41,48.24,19.39,30.94c9.16-17.66,35-21.6,49.05-7.43,13.78,13.86,14.49,39.18-1.78,51.57C49.89,87.84,27.57,80.24,17.17,63.59c-9.94-15.92-4.78-38.7,11.94-47.93C47.78,5.35,71.87,14.35,79.79,34.05c7.43,18.49-.21,40.78-19.14,48.48C40,90.92,19.09,78.41,11,58.94,2.87,39.25,13.93,17.16,33.48,9.81c21.33-8,44.09,5.75,51,26.36,5.83,17.34-1.31,40.07-18.34,48.47-19.17,9.47-45,2.47-55.33-16.83S3.43,27.53,20.19,13.1c15.09-13,38.38-10.91,53.58.69C90.28,26.41,94.49,50.65,85.7,69,76.62,87.86,57,96.16,37.14,91.21S3,68.66.7,48.29,15.25,5.75,35,1.69C56.94-2.83,77.55,5.61,88.6,25.47c0,0,5.77,10.57,6.3,18.5,0,0,.26,9.86,1,13.1s3.64,19.32,10,23.82a69.45,69.45,0,0,0,13.1,7.6l1.52.53L119,92.13l-1.66-.73s-7.73-2.84-9.85-4.1-8.14-6.22-9.26-8.73S93.31,65.87,93,63.89,91.26,53,91.13,51.58s-.89-5.17-.89-5.17"/></g></g></svg>